<svg xmlns="http://www.w3.org/2000/svg" width="177" height="30" viewBox="0 0 177 30">
    <g fill="none" fill-rule="evenodd">
        <path fill="#00FFCA" d="M-130-25h1440v80H-130z"/>
        <g fill="#FFF">
            <path d="M61.446 12.445h7.67V4.003h5.313V26h-5.312v-9.357h-7.671V26h-5.312V4.003h5.312v8.442zM94 8.59h-9.77v4.06h9.77v4.585h-9.77v4.17h9.77v4.586H78.92V4.005h15.082V8.59zm28.896 4.585l6.925-9.17h6.559l-8.55 10.44 8.643 11.545h-6.885l-6.692-9.611v9.611h-5.312V4.005h5.312v9.17zM155.13 8.59h-9.77v4.06h9.77v4.585h-9.77v4.18h9.77V26h-15.082V4.005h15.082V8.59zM46.76 4.006h4.88V9.252h-4.88v.018a5.362 5.362 0 0 0-3.631 1.628 5.55 5.55 0 0 0-1.152 1.808c-.28.7-.42 1.455-.42 2.266 0 .828.14 1.592.42 2.292.28.7.668 1.307 1.165 1.823.497.515 1.08.921 1.749 1.215a5.246 5.246 0 0 0 1.87.428v.016h4.878v5.246h-4.905c-1.41 0-2.76-.271-4.052-.814a10.577 10.577 0 0 1-3.415-2.293c-.986-.985-1.775-2.154-2.372-3.508-.596-1.353-.894-2.83-.894-4.433 0-1.602.293-3.07.88-4.405.587-1.335 1.373-2.486 2.359-3.453a10.76 10.76 0 0 1 3.428-2.265 10.525 10.525 0 0 1 4.093-.815zm121.6 8.294c1.139 0 2.072-.95 2.072-2.112 0-1.162-.933-2.112-2.072-2.112h-3.422V12.3h3.422zm1.867 4.037L177 25.996h-6.614l-5.45-9.18v9.18h-5.312V4l10.29.023c3.327 0 6.05 2.774 6.05 6.165 0 3.284-2.555 5.98-5.738 6.149zm-62.01-12.328h4.878v5.246h-4.878v.018a5.362 5.362 0 0 0-3.631 1.628 5.542 5.542 0 0 0-1.153 1.809 6.04 6.04 0 0 0-.42 2.265c0 .828.14 1.593.42 2.293.28.7.668 1.307 1.165 1.822.497.516 1.08.922 1.748 1.215a5.246 5.246 0 0 0 1.87.428v.016h4.88v5.247h-4.88v-.001h-.026c-1.41 0-2.76-.271-4.052-.814a10.57 10.57 0 0 1-3.416-2.293c-.985-.984-1.775-2.154-2.371-3.508-.596-1.353-.894-2.83-.894-4.432 0-1.602.293-3.071.88-4.406a10.978 10.978 0 0 1 2.358-3.453 10.77 10.77 0 0 1 3.429-2.265 10.525 10.525 0 0 1 4.093-.815zM27.696 8.435H12.629c-2.374 0-4.304-1.891-4.304-4.217C8.325 1.892 10.255 0 12.629 0h15.067C30.069 0 32 1.892 32 4.218s-1.931 4.217-4.304 4.217zM15.689 4.217c0-1.621-1.341-2.936-2.997-2.936-1.655 0-2.996 1.315-2.996 2.936 0 1.622 1.341 2.937 2.996 2.937 1.656 0 2.997-1.315 2.997-2.937zm3.643 6.79c2.373 0 4.304 1.744 4.304 4.07 0 2.325-1.93 4.07-4.304 4.07H4.304C1.93 19.147 0 17.402 0 15.077c0-2.326 1.93-4.07 4.304-4.07h15.028zm-2.27 6.055a3.04 3.04 0 0 0 4.234.174 2.894 2.894 0 0 0 .178-4.149 3.04 3.04 0 0 0-4.234-.174 2.894 2.894 0 0 0-.178 4.149zm10.634 4.798c2.373 0 4.304 1.744 4.304 4.07 0 2.326-1.931 4.07-4.304 4.07H12.668c-2.373 0-4.304-1.744-4.304-4.07 0-2.326 1.93-4.07 4.304-4.07h15.028zm-2.27 6.058a3.04 3.04 0 0 0 4.234.174 2.895 2.895 0 0 0 .178-4.15 3.04 3.04 0 0 0-4.234-.173 2.894 2.894 0 0 0-.178 4.15z"/>
        </g>
    </g>
</svg>
