<svg xmlns="http://www.w3.org/2000/svg" xmlns:xlink="http://www.w3.org/1999/xlink" width="80" height="80" viewBox="0 0 80 80">
    <defs>
        <path id="a" d="M40 77c20.435 0 37-16.565 37-37S60.435 3 40 3 3 19.565 3 40s16.565 37 37 37zm0 3C17.909 80 0 62.091 0 40S17.909 0 40 0s40 17.909 40 40-17.909 40-40 40zm7.5-24.08L60.524 46H52.5a1.5 1.5 0 0 1 0-3h11a1.5 1.5 0 0 1 1.5 1.5v10a1.5 1.5 0 0 1-3 0v-5.853l-14.862 11.32a1.5 1.5 0 0 1-2.009-.173l-5.626-6.07-17.735 10.565a1.5 1.5 0 0 1-1.536-2.578L39.01 50.525a1.5 1.5 0 0 1 1.868.269l3.622 3.908V36.948H23c-1.337 0-2.006-1.617-1.06-2.561l7.254-7.25-7.08-7.076c-.945-.945-.276-2.561 1.06-2.561H46a1.5 1.5 0 0 1 1.5 1.5v36.92zm-3-21.972V20.5H26.797l5.58 5.576a1.5 1.5 0 0 1 0 2.122l-5.754 5.75H44.5z"/>
    </defs>
    <g fill="none" fill-rule="evenodd">
        <path fill="#FFF" d="M0 0h80v80H0z"/>
        <mask id="b" fill="#fff">
            <use xlink:href="#a"/>
        </mask>
        <use fill="#FFF" fill-rule="nonzero" xlink:href="#a"/>
        <g fill="#262626" mask="url(#b)">
            <path d="M0 0h80v80H0z"/>
        </g>
    </g>
</svg>
