<?xml version="1.0" encoding="UTF-8"?>
<svg width="40px" height="40px" viewBox="0 0 40 40" version="1.1" xmlns="http://www.w3.org/2000/svg" xmlns:xlink="http://www.w3.org/1999/xlink">
    <!-- Generator: sketchtool 53.2 (72643) - https://sketchapp.com -->
    <title>2381C997-8BD6-42F2-908F-68119E300277</title>
    <desc>Created with sketchtool.</desc>
    <defs>
        <path d="M20,38.5 C30.2172679,38.5 38.5,30.2172679 38.5,20 C38.5,9.78273213 30.2172679,1.5 20,1.5 C9.78273213,1.5 1.5,9.78273213 1.5,20 C1.5,30.2172679 9.78273213,38.5 20,38.5 Z M20,40 C8.954305,40 0,31.045695 0,20 C0,8.954305 8.954305,0 20,0 C31.045695,0 40,8.954305 40,20 C40,31.045695 31.045695,40 20,40 Z M23.75,27.9602536 L30.2622356,23 L26.25,23 C25.8357864,23 25.5,22.6642136 25.5,22.25 C25.5,21.8357864 25.8357864,21.5 26.25,21.5 L31.75,21.5 C32.1642136,21.5 32.5,21.8357864 32.5,22.25 L32.5,27.25 C32.5,27.6642136 32.1642136,28 31.75,28 C31.3357864,28 31,27.6642136 31,27.25 L31,24.3236241 L23.5691502,29.9835697 C23.2619182,30.2175828 22.8272062,30.180027 22.5646607,29.8967895 L19.7512726,26.8616693 L10.8838506,32.1443281 C10.527998,32.3563229 10.0676668,32.2397032 9.8556719,31.8838506 C9.64367706,31.527998 9.76029679,31.0676668 10.1161494,30.8556719 L19.5049196,25.2624262 C19.8089547,25.081301 20.1982279,25.1373522 20.4388113,25.3968967 L22.25,27.3508309 L22.25,18.4738074 L11.5,18.4738074 C10.8317064,18.4738074 10.4971334,17.6657134 10.9698386,17.1933088 L14.597168,13.5682852 L11.0570345,10.0305065 C10.5843186,9.55810502 10.9188891,8.75 11.5871881,8.75 L23,8.75 C23.4142136,8.75 23.75,9.08578644 23.75,9.5 L23.75,27.9602536 Z M22.25,16.9738074 L22.25,10.25 L13.3987005,10.25 L16.188327,13.0377709 C16.4814525,13.3307014 16.481456,13.8058413 16.1883348,14.0987761 L13.3114746,16.9738074 L22.25,16.9738074 Z" id="path-1"></path>
    </defs>
    <g id="Page-1" stroke="none" stroke-width="1" fill="none" fill-rule="evenodd">
        <g id="checker_Mobile" transform="translate(-140.000000, -3380.000000)">
            <g id="05" transform="translate(0.000000, 3320.000000)">
                <g id="icn/develop" transform="translate(140.000000, 60.000000)">
                    <g id="Group">
                        <mask id="mask-2" fill="white">
                            <use xlink:href="#path-1"></use>
                        </mask>
                        <use id="icon" fill="#FFFFFF" fill-rule="nonzero" xlink:href="#path-1"></use>
                        <g id="color/07" mask="url(#mask-2)" fill="#262626">
                            <rect id="Rectangle" x="0" y="0" width="40" height="40"></rect>
                        </g>
                    </g>
                </g>
            </g>
        </g>
    </g>
</svg>