<svg xmlns="http://www.w3.org/2000/svg" xmlns:xlink="http://www.w3.org/1999/xlink" width="80" height="80" viewBox="0 0 80 80">
    <defs>
        <path id="a" d="M56.198 55.244c0 2.01-1.614 3.647-3.6 3.647H41.898v-5.823a4.863 4.863 0 0 0 3.374-4.63c0-2.69-2.162-4.88-4.82-4.88-2.657 0-4.82 2.19-4.82 4.88a4.864 4.864 0 0 0 3.375 4.63v5.823H28.31c-1.985 0-3.6-1.636-3.6-3.647V39.403c0-2.01 1.615-3.646 3.6-3.646h24.287c1.987 0 3.601 1.636 3.601 3.646v15.84zm-15.744-4.855c-1.063 0-1.928-.875-1.928-1.952 0-1.076.865-1.952 1.928-1.952s1.928.876 1.928 1.952c0 1.077-.865 1.952-1.928 1.952zm-9.689-28.36c0-2.01 1.616-3.646 3.601-3.646h12.176c1.985 0 3.6 1.635 3.6 3.646v10.8H30.766v-10.8zm22.27 10.822V22.029c0-3.625-2.914-6.574-6.493-6.574H34.366c-3.58 0-6.492 2.949-6.492 6.574v10.822c-3.377.229-6.056 3.076-6.056 6.552v15.84c0 3.626 2.912 6.575 6.492 6.575h24.287c3.581 0 6.494-2.949 6.494-6.574V39.403c0-3.476-2.681-6.323-6.056-6.552zM40 77.273C19.415 77.273 2.727 60.585 2.727 40 2.727 19.415 19.415 2.727 40 2.727c20.585 0 37.273 16.688 37.273 37.273 0 20.585-16.688 37.273-37.273 37.273zM40 0C17.908 0 0 17.91 0 40c0 22.092 17.908 40 40 40 22.09 0 40-17.908 40-40C80 17.91 62.09 0 40 0z"/>
    </defs>
    <g fill="none" fill-rule="evenodd">
        <path fill="#FFF" d="M0 0h80v80H0z"/>
        <mask id="b" fill="#fff">
            <use xlink:href="#a"/>
        </mask>
        <use fill="#FEFEFE" xlink:href="#a"/>
        <g fill="#FFF" mask="url(#b)">
            <path d="M0 0h80v80H0z"/>
        </g>
    </g>
</svg>
