<svg xmlns="http://www.w3.org/2000/svg" width="288" height="54" viewBox="0 0 288 54">
    <g fill="none" fill-rule="evenodd">
        <path fill="#F2F2F2" d="M-576-63H864V961H-576z"/>
        <path fill="#0037A6" d="M-576-63H864v400H-576z"/>
        <path fill="#FFF" d="M101.68 23.375h12.028v-12.99h8.33v33.848h-8.33V29.835H101.68v14.398h-8.33V10.385h8.33v12.99zm51.048-5.932h-15.32v6.248h15.32v7.054h-15.32v6.418h15.32v7.055h-23.65V10.39h23.65v7.053zm45.31 7.055l10.858-14.11h10.285l-13.408 16.065 13.553 17.765H208.53l-10.493-14.79v14.79h-8.33v-33.83h8.33v14.11zm50.54-7.055H233.26v6.248h15.32v7.054h-15.32v6.433h15.32v7.054h-23.65V10.39h23.65v7.053zM78.651 10.391h7.65v8.072h-7.65v.026c-1.05.055-2.038.267-2.953.657a8.395 8.395 0 0 0-2.74 1.849 8.498 8.498 0 0 0-1.808 2.783c-.438 1.077-.659 2.24-.659 3.485 0 1.275.22 2.45.659 3.527a8.575 8.575 0 0 0 1.827 2.806 8.527 8.527 0 0 0 2.742 1.869 8.332 8.332 0 0 0 2.932.658v.025h7.65v8.073h-7.65v-.001h-.042c-2.21 0-4.328-.417-6.353-1.253A16.605 16.605 0 0 1 66.9 39.44c-1.546-1.516-2.784-3.316-3.72-5.399-.934-2.082-1.401-4.354-1.401-6.82 0-2.465.46-4.724 1.38-6.78.92-2.053 2.153-3.824 3.698-5.312a16.9 16.9 0 0 1 5.376-3.485 16.776 16.776 0 0 1 6.417-1.253zm190.671 12.761a3.26 3.26 0 0 0 3.25-3.25 3.26 3.26 0 0 0-3.25-3.25h-5.365v6.5h5.365zm2.93 6.212l10.62 14.861h-10.37l-8.545-14.123v14.123h-8.33V10.381l16.135.036c5.217 0 9.486 4.267 9.486 9.486 0 5.051-4.006 9.202-8.997 9.461zm-97.236-18.968h7.65v8.072h-7.65v.027c-1.05.054-2.038.267-2.953.656a8.413 8.413 0 0 0-2.74 1.848 8.523 8.523 0 0 0-1.808 2.784c-.44 1.078-.659 2.239-.659 3.484 0 1.276.22 2.452.659 3.529a8.582 8.582 0 0 0 1.827 2.805 8.548 8.548 0 0 0 2.742 1.87c.911.394 1.892.606 2.932.658v.024h7.65v8.072h-7.692c-2.21 0-4.328-.417-6.353-1.252a16.62 16.62 0 0 1-5.357-3.529c-1.544-1.514-2.782-3.314-3.718-5.397-.934-2.083-1.401-4.356-1.401-6.822 0-2.464.46-4.724 1.38-6.779.92-2.053 2.153-3.825 3.697-5.311a16.919 16.919 0 0 1 5.377-3.486 16.777 16.777 0 0 1 6.417-1.253zM47.45 16.676H23.812a6.76 6.76 0 0 1-6.752-6.752 6.759 6.759 0 0 1 6.752-6.752h23.637a6.76 6.76 0 0 1 6.753 6.752 6.76 6.76 0 0 1-6.753 6.753zm-13.12 4.118c3.722 0 6.752 2.793 6.752 6.517 0 3.723-3.03 6.516-6.753 6.516H10.753C7.029 33.827 4 31.034 4 27.31c0-3.724 3.029-6.517 6.753-6.517h23.575zm13.12 17.378c3.723 0 6.753 2.793 6.753 6.516s-3.03 6.517-6.753 6.517H23.874c-3.723 0-6.753-2.794-6.753-6.517 0-3.723 3.03-6.516 6.753-6.516h23.575zm-3.56 9.7a4.7 4.7 0 1 0 6.921-6.364 4.702 4.702 0 0 0-6.921 6.364zM28.613 9.924a4.701 4.701 0 1 0-9.403 0 4.701 4.701 0 0 0 9.403 0zm2.154 20.565a4.702 4.702 0 1 0 6.92-6.366 4.702 4.702 0 0 0-6.92 6.366z"/>
    </g>
</svg>
