<svg xmlns="http://www.w3.org/2000/svg" width="120" height="120" viewBox="0 0 120 120">
    <path fill="#FFF" fill-rule="evenodd" d="M24.318 87.875h86.215V34.128H24.318v53.747zM16.81 37.158c.697 0 1.267-.574 1.267-1.275 0-.702-.57-1.275-1.267-1.275H12.38c-.697 0-1.267.573-1.267 1.275 0 .701.57 1.275 1.267 1.275h4.431zm0 6.516c.697 0 1.267-.526 1.267-1.23 0-.703-.57-1.231-1.267-1.231h-4.42c-.697 0-1.267.528-1.267 1.232 0 .703.57 1.229 1.266 1.229h4.421zm-8.147-4.51c0 .704.568 1.23 1.267 1.23h4.42c.698 0 1.265-.526 1.265-1.23 0-.7-.567-1.23-1.264-1.23H9.93c-.7 0-1.267.53-1.267 1.23zM108.028 28h3.902c2.84 0 5.07 1.942 5.07 4.8v55.79c0 2.756-2.23 5.41-5.07 5.41H8.07C5.332 94 3 91.346 3 88.59V32.8C3 29.942 5.23 28 8.07 28h99.958zM32 46v-5h68v5H32zm0 10v-5h30v5H32zm63 15v5h5v5H90v-5H80v5h-5v-5h-5v-5h5V61h-5v-5h5v-5h5v5h10v-5h10v20h-5zM75 61h5v-5h-5v5zm0 15h5v-5h-5v5zm5-10h5v-5h-5v5zm5 0h5v-5h-5v5zm5-5h5v-5h-5v5zm0 15h5v-5h-5v5zm-5-5h5v-5h-5v5zm10-5h5v-5h-5v5zm-63 0v-5h30v5H32zM12.58 35c.487 0 .88.401.88.892 0 .492-.393.89-.88.89a.884.884 0 0 1-.88-.89c0-.49.394-.892.88-.892zm2.247 3.581a.902.902 0 0 1-.051 1.26.875.875 0 0 1-1.245-.052.898.898 0 0 1 .054-1.258.87.87 0 0 1 1.242.05zm1.258 3.24a.87.87 0 0 1 1.242.055.898.898 0 0 1-.052 1.258.87.87 0 0 1-1.242-.052.898.898 0 0 1 .052-1.26z"/>
</svg>
