<svg xmlns="http://www.w3.org/2000/svg" width="120" height="120" viewBox="0 0 120 120">
    <path fill="#FFF" fill-rule="evenodd" d="M109.836 54.689v-6.99c0-.523-.344-.873-.86-.873H84.022c-.516 0-.86.35-.86.874v6.989c0 .524.344.873.86.873h24.954c.516 0 .86-.349.86-.873zm-1.72 7.86c.946 0 1.72-.784 1.72-1.746 0-.96-.774-1.745-1.72-1.745H84.884c-.946 0-1.722.784-1.722 1.745 0 .962.776 1.747 1.722 1.747h23.232zm0 6.116c.946 0 1.72-.784 1.72-1.746 0-.961-.774-1.745-1.72-1.745H84.884c-.946 0-1.722.784-1.722 1.745 0 .962.776 1.746 1.722 1.746h23.232zm0 6.116c.946 0 1.72-.786 1.72-1.747 0-.962-.774-1.746-1.72-1.746H84.884c-.946 0-1.722.784-1.722 1.746 0 .961.776 1.747 1.722 1.747h23.232zm0 6.116c.946 0 1.72-.786 1.72-1.747 0-.96-.774-1.749-1.72-1.749H84.884c-.946 0-1.722.788-1.722 1.75 0 .96.776 1.746 1.722 1.746h23.232zm0 6.116c.946 0 1.72-.788 1.72-1.749 0-.959-.774-1.747-1.72-1.747H84.884c-.946 0-1.722.788-1.722 1.747 0 .96.776 1.749 1.722 1.749h23.232zm-21.941-63.95c-1.635 0-3.013 1.4-3.013 3.06 0 1.66 1.378 3.057 3.013 3.057 1.634 0 3.01-1.398 3.01-3.057 0-1.66-1.376-3.06-3.01-3.06zm6.882.876c-1.204 0-2.15.961-2.15 2.184 0 1.223.946 2.185 2.15 2.185s2.153-.962 2.153-2.185-.949-2.184-2.153-2.184zM108.977 18c3.354 0 6.023 2.708 6.023 6.114v63.77c0 3.407-2.669 6.116-6.024 6.116H84.022C80.667 94 78 91.29 78 87.884v-63.77C78 20.708 80.667 18 84.022 18h24.954zM10.191 73.829h59.704v-36.6H10.192v36.6zm32.015 7.059v-1.832H37.88v1.832c0 1.22.951 2.176 2.164 2.176a2.148 2.148 0 0 0 2.163-2.176zM9.327 32h61.347C73.097 32 75 33.657 75 36.097v38.342c0 2.354-1.903 4.617-4.326 4.617H49.906v8.802l4.674 3.225c.346.173.519.523.519.87 0 .522-.346 1.047-.865 1.047H25.853c-.433 0-.779-.437-.865-.784-.087-.35 0-.96.346-1.133l4.76-3.225v-8.802H9.327C6.99 79.056 5 76.793 5 74.44V36.097C5 33.657 6.903 32 9.327 32zM39.5 59.915V61.5a.5.5 0 1 0 1 0v-1.585a1.5 1.5 0 1 0-1 0zM34.5 54h11a1 1 0 0 1 1 1v8a1 1 0 0 1-1 1h-11a1 1 0 0 1-1-1v-8a1 1 0 0 1 1-1zm8-2.524a2.5 2.5 0 0 0-5 0V54h-2v-2.545a4.5 4.5 0 0 1 9 0V54h-2v-2.524z"/>
</svg>
