<svg xmlns="http://www.w3.org/2000/svg" width="153" height="25" viewBox="0 0 153 25">
    <g fill="none" fill-rule="evenodd">
        <path fill="#262626" d="M-1034-93H406V76h-1440z"/>
        <path fill="#FFF" d="M52.646 10.908h6.708V4H64v18h-4.646v-7.656h-6.708V22H48V4h4.646v6.908zM83 7.754h-9.069v3.324H83v3.753h-9.069v3.415H83V22H69V4h14v3.754zm22.5 3.753L111.365 4h5.557l-7.243 8.548L117 22h-5.831l-5.67-7.87V22H101V4h4.5v7.507zM135 7.752h-9.069v3.323H135v3.752h-9.069v3.42H135V22h-14V4h14v3.752zM40.632 4H45v4.295h-4.368v.014c-.6.029-1.164.142-1.686.35a4.836 4.836 0 0 0-1.564.983 4.517 4.517 0 0 0-1.032 1.481 4.586 4.586 0 0 0-.376 1.855c0 .678.125 1.304.376 1.876.25.574.598 1.07 1.043 1.493a4.91 4.91 0 0 0 1.565.995c.52.21 1.08.323 1.674.35v.013H45V22h-4.392c-1.261 0-2.47-.222-3.627-.666a9.567 9.567 0 0 1-3.057-1.878 9.342 9.342 0 0 1-2.124-2.872c-.533-1.107-.8-2.317-.8-3.629 0-1.311.262-2.514.788-3.607A8.997 8.997 0 0 1 33.9 6.521a9.748 9.748 0 0 1 3.068-1.854A10.19 10.19 0 0 1 40.632 4zm104.482 7c1.037 0 1.886-.9 1.886-2s-.85-2-1.886-2H142v4h3.114zm2.038 3.096L153 22h-5.71l-4.704-7.512V22H138V4l8.883.019c2.872 0 5.222 2.27 5.222 5.045 0 2.687-2.205 4.894-4.953 5.032zM93.632 4H98v4.295h-4.368v.014c-.6.029-1.164.142-1.686.35a4.836 4.836 0 0 0-1.564.983 4.51 4.51 0 0 0-1.032 1.481 4.575 4.575 0 0 0-.376 1.855c0 .678.125 1.304.376 1.876.25.574.598 1.07 1.043 1.493a4.91 4.91 0 0 0 1.565.995c.52.21 1.08.323 1.674.35v.013H98V22h-4.392c-1.262 0-2.47-.223-3.627-.667a9.561 9.561 0 0 1-3.058-1.877 9.35 9.35 0 0 1-2.123-2.872c-.533-1.107-.8-2.317-.8-3.629 0-1.311.262-2.514.788-3.607a9.005 9.005 0 0 1 2.11-2.827 9.759 9.759 0 0 1 3.07-1.854A10.19 10.19 0 0 1 93.632 4zM23.364 7H10.636C8.63 7 7 5.43 7 3.5S8.63 0 10.636 0h12.728C25.369 0 27 1.57 27 3.5S25.369 7 23.364 7zM14 3.5C14 2.12 12.657 1 11 1S8 2.12 8 3.5 9.343 6 11 6s3-1.12 3-2.5zM16.358 9C18.366 9 20 10.5 20 12.5S18.366 16 16.358 16H3.642C1.633 16 0 14.5 0 12.5S1.633 9 3.642 9h12.716zm-2.566 5.192c1.121 1.016 3.02 1.083 4.238.148 1.22-.934 1.3-2.516.178-3.532-1.121-1.017-3.018-1.083-4.238-.148-1.22.934-1.3 2.515-.178 3.532zM23.358 18C25.366 18 27 19.5 27 21.5S25.366 25 23.358 25H10.642C8.634 25 7 23.5 7 21.5S8.634 18 10.642 18h12.716zm-1.566 5.192c1.121 1.016 3.02 1.083 4.239.148 1.219-.935 1.299-2.516.178-3.532-1.122-1.016-3.02-1.083-4.24-.148-1.22.934-1.299 2.516-.177 3.532z" opacity=".3"/>
    </g>
</svg>
