<svg xmlns="http://www.w3.org/2000/svg" width="120" height="120" viewBox="0 0 120 120">
    <path fill="#FFF" fill-rule="evenodd" d="M39.348 91.762h41.304v-64.62H39.348v64.62zM60 101.619c1.777 0 3.26-1.493 3.26-3.286 0-1.792-1.483-3.285-3.26-3.285-1.78 0-3.262 1.493-3.262 3.285 0 1.793 1.483 3.286 3.262 3.286zm-7.52-82.143c-.707 0-1.177.487-1.177.975 0 .729.47 1.216 1.177 1.216h12.012c.47 0 .942-.487.942-1.216 0-.488-.471-.975-.942-.975H52.48zm15.13 0c-.544 0-1.09.487-1.09.975 0 .729.546 1.216 1.09 1.216.541 0 1.085-.487 1.085-1.216 0-.488-.544-.975-1.086-.975zM78.396 14C82.169 14 85 16.817 85 20.572V99.43c0 3.44-2.83 6.57-6.603 6.57H41.603C38.145 106 35 102.87 35 99.43V20.572C35 16.817 38.145 14 41.603 14h36.794zM58.409 62.714l10.468-10.468a1.5 1.5 0 0 1 2.121 0l.202.202a1.5 1.5 0 0 1 0 2.121L59.671 66.1l-.184.184a1.5 1.5 0 0 1-2.122 0l-5.623-5.623a1.5 1.5 0 0 1 0-2.122l.185-.184a1.5 1.5 0 0 1 2.121 0l4.36 4.36z"/>
</svg>
