<svg xmlns="http://www.w3.org/2000/svg" width="120" height="120" viewBox="0 0 120 120">
    <path fill="#FFF" fill-rule="evenodd" d="M86 43a3 3 0 1 1 .001 5.999A3 3 0 0 1 86 43zM40 72v-4h40v4H40zm0 8v-4h40v4H40zm0 10v-4h27v4H40zm55.394-26.023V41.333c0-2.566-2.111-4.653-4.708-4.653H29.314c-2.595 0-4.708 2.087-4.708 4.653v22.644c0 2.567 2.111 4.653 4.708 4.653h.134v-6.987h-1.39v-5.737H91.56v5.737h-1.022v6.987h.146c2.597 0 4.71-2.086 4.71-4.653zM84.733 93.554V61.643h-49.48v31.91c0 1.378 1.888 2.703 2.596 2.71h44.289c.708-.007 2.595-1.332 2.595-2.71zm-44.691-68.64c-1.696 0-3.07 1.358-3.07 3.033 0 1.675 1.374 3.033 3.07 3.033 1.695 0 3.07-1.358 3.07-3.033 0-1.675-1.375-3.032-3.07-3.032zm9.182 0c-1.695 0-3.07 1.358-3.07 3.033 0 1.675 1.375 3.033 3.07 3.033 1.696 0 3.07-1.358 3.07-3.033 0-1.675-1.374-3.032-3.07-3.032zm41.46 7.215c5.136 0 9.316 4.129 9.316 9.204v22.644c0 5.074-4.18 9.202-9.316 9.202h-.146v20.375c0 4.677-4.594 8.446-8.4 8.446H37.849c-3.807 0-8.401-3.769-8.401-8.446V73.179h-.134c-5.136 0-9.314-4.128-9.314-9.202V41.333c0-5.075 4.178-9.204 9.314-9.204h.132v-6.975c0-3.943 3.083-7.154 6.872-7.154h47.35c3.788 0 6.87 3.21 6.87 7.154v6.975h.146z"/>
</svg>
